<?xml version="1.0" encoding="UTF-8"?><svg xmlns="http://www.w3.org/2000/svg" viewBox="0 0 1000 308"><defs><style>.cls-1{fill:none;}.cls-2{fill:#00b1ff;}.cls-3{fill:#ffbe0c;}.cls-4{fill:#ff00d9;}</style></defs><g id="Layer_1"><g><g><g><path class="cls-2" d="M176.02,209.26c-.31,.02-.62,.03-.93,.03-8.66,0-15.92-6.77-16.4-15.53l-1.21-21.75-30.39-52.64-17.78-11.62c-7.58-4.95-10.2-15.13-5.39-22.8,.49-.79,1.06-1.5,1.65-2.17-5.07-5.73-13.64-7.3-20.52-3.33-7.86,4.54-10.56,14.6-6.02,22.46l69.7,120.72c3.05,5.28,8.57,8.22,14.25,8.22,2.79,0,5.62-.71,8.21-2.21,6.97-4.03,9.87-12.38,7.27-19.71-.8,.17-1.61,.29-2.45,.34Z"/><path class="cls-2" d="M244.24,82.13c-3.16-3.27-7.61-4.96-12.16-4.96h-73.82c-7.83,0-14.36,5.48-16.02,12.81l30.71,20.08h17.21c6.14,0,9.98,6.65,6.91,11.97l-8.6,14.9,2.04,36.65c1.59,.49,3.22,.74,4.84,.74,5.68,0,11.21-2.95,14.25-8.22l37.1-64.26c3.61-6.25,2.78-14.27-2.46-19.7Z"/></g><path class="cls-3" d="M181.38,149.2l7.09-12.27-.5-9.06c-.29-5.22-3.04-9.99-7.42-12.85l-7.59-4.97h-14.23c-8.85,0-16.47-6.8-16.89-15.65-.07-1.53,.09-3.01,.41-4.43l-15.4-10.07c-6.91-4.52-15.95-3.15-21.27,2.85,.72,.81,1.37,1.71,1.94,2.69l19.57,33.9,24.35,15.92c2.62,1.71,4.26,4.56,4.44,7.68l1.61,29.04,19.73,34.17c.51,.89,.92,1.81,1.26,2.75,7.83-1.63,13.52-8.76,13.06-16.99l-1.02-18.35c-1.46-.45-2.88-1.11-4.23-2-7.33-4.84-9.28-14.77-4.9-22.37Z"/><g><path class="cls-4" d="M105.58,82.76c-.6,.67-1.16,1.39-1.65,2.17-4.81,7.67-2.19,17.84,5.39,22.8l17.78,11.62-19.57-33.9c-.57-.98-1.22-1.88-1.94-2.69Z"/><path class="cls-4" d="M157.48,172l1.21,21.75c.49,8.76,7.74,15.53,16.4,15.53,.31,0,.62,0,.93-.03,.84-.05,1.65-.17,2.45-.34-.33-.94-.74-1.86-1.26-2.75l-19.73-34.17Z"/><path class="cls-4" d="M172.95,110.05l-30.71-20.08c-.32,1.42-.48,2.9-.41,4.43,.42,8.84,8.03,15.65,16.89,15.65h14.23Z"/><path class="cls-4" d="M188.47,136.93l-7.09,12.27c-4.39,7.6-2.43,17.54,4.9,22.37,1.35,.89,2.77,1.55,4.23,2l-2.04-36.65Z"/></g></g><g><path d="M339.46,118.38c-3.15-1.87-6.77-2.8-10.87-2.8h-26.01c-.88,0-1.65,.33-2.31,.99-.66,.66-.99,1.43-.99,2.3v70.24c0,.88,.29,1.65,.88,2.3,.58,.66,1.39,.99,2.41,.99,.88,0,1.65-.33,2.3-.99,.66-.66,.99-1.43,.99-2.3v-29.2h22.72c4.1,0,7.72-.99,10.87-2.96,3.14-1.98,5.63-4.67,7.46-8.07,1.83-3.4,2.74-7.23,2.74-11.47s-.92-8.01-2.74-11.3c-1.83-3.29-4.32-5.87-7.46-7.74Zm1.59,27.22c-1.21,2.45-2.87,4.39-4.99,5.82-2.12,1.43-4.61,2.14-7.46,2.14h-22.72v-31.5h22.72c2.85,0,5.34,.66,7.46,1.98,2.12,1.32,3.79,3.13,4.99,5.43,1.21,2.3,1.81,4.96,1.81,7.96s-.6,5.73-1.81,8.18Z"/><path d="M410.1,122.06c.88,0,1.65-.29,2.3-.88,.66-.59,.99-1.35,.99-2.3s-.33-1.74-.99-2.36c-.66-.62-1.43-.93-2.3-.93h-40.28c-.88,0-1.65,.33-2.31,.99-.66,.66-.99,1.43-.99,2.3v70.24c0,.88,.33,1.65,.99,2.3,.66,.66,1.43,.99,2.31,.99h40.28c.88,0,1.65-.29,2.3-.88,.66-.59,.99-1.35,.99-2.3,0-.88-.33-1.65-.99-2.31-.66-.66-1.43-.99-2.3-.99h-36.66v-29.85h31.72c.88,0,1.65-.29,2.31-.88,.66-.59,.99-1.35,.99-2.3,0-.88-.33-1.65-.99-2.31-.66-.66-1.43-.99-2.31-.99h-31.72v-27.55h36.66Z"/><path d="M919.88,185.94h-36.66v-29.85h31.72c.88,0,1.65-.29,2.31-.88,.66-.59,.99-1.35,.99-2.3,0-.88-.33-1.65-.99-2.31-.66-.66-1.43-.99-2.31-.99h-31.72v-27.55h36.66c.88,0,1.65-.29,2.3-.88,.66-.59,.99-1.35,.99-2.3s-.33-1.74-.99-2.36c-.66-.62-1.43-.93-2.3-.93h-40.28c-.88,0-1.65,.33-2.31,.99-.66,.66-.99,1.43-.99,2.3v70.24c0,.88,.33,1.65,.99,2.3,.66,.66,1.43,.99,2.31,.99h40.28c.88,0,1.65-.29,2.3-.88,.66-.59,.99-1.35,.99-2.3,0-.88-.33-1.65-.99-2.31-.66-.66-1.43-.99-2.3-.99Z"/><path d="M487.74,115.58c-.81,0-1.52,.29-2.14,.88-.62,.59-.93,1.32-.93,2.2v61.85l-47.31-63.72c-.29-.44-.7-.75-1.21-.93-.51-.18-.99-.27-1.43-.27-.81,0-1.54,.27-2.2,.82-.66,.55-.99,1.37-.99,2.47v70.57c0,.81,.27,1.5,.82,2.09,.55,.59,1.3,.88,2.25,.88,.88,0,1.61-.29,2.2-.88,.58-.59,.88-1.28,.88-2.09v-61.61l47.09,63.48c.29,.37,.69,.64,1.21,.82,.51,.18,.99,.28,1.43,.28,.88,0,1.66-.31,2.36-.93,.69-.62,1.04-1.48,1.04-2.58V118.66c0-.88-.27-1.61-.82-2.2-.55-.58-1.3-.88-2.25-.88Z"/><path d="M565.16,115.58c-.81,0-1.52,.29-2.14,.88-.62,.59-.93,1.32-.93,2.2v61.85l-47.31-63.72c-.29-.44-.7-.75-1.21-.93-.51-.18-.99-.27-1.43-.27-.81,0-1.54,.27-2.19,.82-.66,.55-.99,1.37-.99,2.47v70.57c0,.81,.27,1.5,.82,2.09,.55,.59,1.3,.88,2.25,.88,.88,0,1.61-.29,2.2-.88,.58-.59,.88-1.28,.88-2.09v-61.61l47.09,63.48c.29,.37,.69,.64,1.21,.82,.51,.18,.99,.28,1.43,.28,.88,0,1.66-.31,2.36-.93,.69-.62,1.04-1.48,1.04-2.58V118.66c0-.88-.27-1.61-.82-2.2-.55-.58-1.3-.88-2.25-.88Z"/><path d="M855.08,115.58c-.81,0-1.52,.29-2.14,.88-.62,.59-.93,1.32-.93,2.2v61.85l-47.31-63.72c-.29-.44-.7-.75-1.21-.93-.51-.18-.99-.27-1.43-.27-.81,0-1.54,.27-2.2,.82-.66,.55-.99,1.37-.99,2.47v70.57c0,.81,.27,1.5,.82,2.09,.55,.59,1.3,.88,2.25,.88,.88,0,1.61-.29,2.2-.88,.58-.59,.88-1.28,.88-2.09v-61.61l47.09,63.48c.29,.37,.69,.64,1.21,.82,.51,.18,.99,.28,1.43,.28,.88,0,1.66-.31,2.36-.93,.69-.62,1.04-1.48,1.04-2.58V118.66c0-.88-.27-1.61-.82-2.2-.55-.58-1.3-.88-2.25-.88Z"/><path d="M637.5,115.58c-1.16,0-2.11,.51-2.84,1.53l-22.08,30.74-22.56-30.74c-.73-1.02-1.64-1.53-2.73-1.53-.8,0-1.58,.31-2.35,.93-.76,.62-1.15,1.4-1.15,2.35,0,.37,.07,.75,.22,1.15,.14,.4,.36,.78,.65,1.15l24.45,33.41v34.58c0,.87,.31,1.64,.93,2.29,.62,.66,1.4,.98,2.35,.98s1.75-.33,2.4-.98c.65-.65,.98-1.42,.98-2.29v-34.76l24.34-33.45c.22-.36,.38-.71,.49-1.04,.11-.33,.16-.67,.16-1.04,0-.8-.31-1.55-.93-2.24-.62-.69-1.4-1.04-2.35-1.04Z"/><path d="M698.83,185.94h-35.56V118.88c0-.88-.35-1.65-1.04-2.3-.7-.66-1.48-.99-2.36-.99-1.02,0-1.87,.33-2.52,.99-.66,.66-.99,1.43-.99,2.3v70.24c0,.88,.31,1.65,.93,2.3,.62,.66,1.41,.99,2.36,.99h39.18c.88,0,1.65-.31,2.31-.93,.66-.62,.99-1.41,.99-2.36,0-.88-.33-1.63-.99-2.25-.66-.62-1.43-.93-2.31-.93Z"/><path d="M751.81,117.77c-.29-.66-.71-1.18-1.26-1.58-.54-.4-1.18-.6-1.91-.6s-1.36,.16-1.91,.49-1,.89-1.36,1.69l-28.81,70.5c-.15,.51-.18,.95-.11,1.31,.07,.8,.36,1.47,.87,2.02,.51,.54,1.27,.82,2.29,.82,.66,0,1.24-.18,1.75-.54,.51-.36,.91-.91,1.2-1.64l25.64-63.72,26.09,63.72c.29,.65,.71,1.18,1.26,1.58,.55,.4,1.18,.6,1.91,.6,.87,0,1.64-.27,2.29-.82,.65-.55,.98-1.33,.98-2.35,0-.44-.07-.87-.22-1.31l-28.7-70.17Z"/></g></g></g><g id="boxes"><rect class="cls-1" x="0" width="1000" height="308"/></g></svg>